<svg xmlns="http://www.w3.org/2000/svg" width="1200" height="630" viewBox="0 0 1200 630">
  <rect width="1200" height="630" fill="#0b3954"/>
  <g opacity="0.15" fill="#e0f2fe">
    <circle cx="180" cy="120" r="70"/>
    <circle cx="980" cy="520" r="110"/>
    <circle cx="840" cy="180" r="50"/>
  </g>
  <g transform="translate(120,110)">
    <rect width="380" height="280" rx="20" fill="#0ea5e9"/>
    <rect x="24" y="24" width="332" height="80" rx="12" fill="#e0f2fe"/>
    <rect x="24" y="120" width="200" height="14" rx="7" fill="#cffafe"/>
    <rect x="24" y="150" width="240" height="14" rx="7" fill="#cffafe"/>
    <rect x="24" y="180" width="180" height="14" rx="7" fill="#cffafe"/>
  </g>
  <g transform="translate(560,110)">
    <rect width="520" height="280" rx="20" fill="#09324a"/>
    <rect x="40" y="40" width="440" height="80" rx="12" fill="#0ea5e9"/>
    <rect x="40" y="140" width="260" height="14" rx="7" fill="#60a5fa"/>
    <rect x="40" y="170" width="220" height="14" rx="7" fill="#22d3ee"/>
    <rect x="40" y="200" width="300" height="14" rx="7" fill="#60a5fa"/>
  </g>
  <g font-family="system-ui, -apple-system, Segoe UI, Roboto, Helvetica, Arial, sans-serif" font-weight="700" fill="#e0f2fe">
    <text x="120" y="460" font-size="48">Développement IoT & Embarqué</text>
    <text x="120" y="510" font-size="28" opacity="0.95">Arduino • ESP32 • Capteurs • OTA • Sécurité</text>
    <text x="120" y="560" font-size="24" opacity="0.85">Solutions pour machines, kiosques et industrie — Sénégal</text>
  </g>
</svg>

