<svg xmlns="http://www.w3.org/2000/svg" width="1200" height="630" viewBox="0 0 1200 630">
  <rect width="1200" height="630" fill="#0ea5e9"/>
  <g fill="#0b3954" opacity="0.1">
    <circle cx="200" cy="120" r="80"/>
    <circle cx="1000" cy="520" r="120"/>
    <circle cx="800" cy="160" r="60"/>
  </g>
  <g transform="translate(80,80)">
    <rect x="0" y="0" width="480" height="360" rx="24" fill="#05263a"/>
    <rect x="28" y="40" width="424" height="240" rx="12" fill="#0f2e44"/>
    <rect x="60" y="80" width="160" height="12" rx="6" fill="#22d3ee"/>
    <rect x="60" y="110" width="240" height="12" rx="6" fill="#60a5fa"/>
    <rect x="60" y="140" width="200" height="12" rx="6" fill="#38bdf8"/>
    <rect x="60" y="170" width="180" height="12" rx="6" fill="#22d3ee"/>
    <rect x="60" y="220" width="140" height="28" rx="8" fill="#0ea5e9"/>
    <rect x="220" y="220" width="100" height="28" rx="8" fill="#1d4ed8"/>
    <rect x="28" y="300" width="140" height="16" rx="8" fill="#0b84d7"/>
    <rect x="176" y="300" width="120" height="16" rx="8" fill="#0b84d7"/>
  </g>

  <g transform="translate(650,130)">
    <rect width="420" height="300" rx="20" fill="#05263a"/>
    <rect x="24" y="24" width="372" height="252" rx="12" fill="#0f2e44"/>
    <g transform="translate(60,70)">
      <rect x="0" y="0" width="240" height="120" rx="12" fill="#083149"/>
      <circle cx="40" cy="60" r="20" fill="#22d3ee"/>
      <rect x="80" y="40" width="120" height="16" rx="8" fill="#60a5fa"/>
      <rect x="80" y="66" width="100" height="12" rx="6" fill="#38bdf8"/>
    </g>
    <rect x="60" y="220" width="160" height="16" rx="8" fill="#22d3ee"/>
    <rect x="230" y="220" width="110" height="16" rx="8" fill="#60a5fa"/>
  </g>

  <g font-family="system-ui, -apple-system, Segoe UI, Roboto, Helvetica, Arial, sans-serif" font-weight="700">
    <text x="80" y="520" font-size="48" fill="#ffffff">ESP32 • IoT • Paiement Mobile</text>
    <text x="80" y="570" font-size="28" fill="#e0f2fe">Intégrations Wave, Orange Money, Free Money</text>
  </g>
</svg>

