<svg xmlns="http://www.w3.org/2000/svg" width="1200" height="630" viewBox="0 0 1200 630">
  <defs>
    <linearGradient id="g" x1="0" x2="1" y1="0" y2="1">
      <stop offset="0%" stop-color="#1d4ed8"/>
      <stop offset="100%" stop-color="#22d3ee"/>
    </linearGradient>
  </defs>
  <rect width="1200" height="630" fill="#0b3954"/>
  <rect x="60" y="60" width="1080" height="510" rx="28" fill="#06263a"/>
  <rect x="120" y="120" width="960" height="390" rx="24" fill="#09324a"/>

  <g transform="translate(160,170)">
    <rect width="240" height="280" rx="16" fill="#0ea5e9"/>
    <circle cx="120" cy="90" r="44" fill="#e0f2fe"/>
    <rect x="40" y="160" width="160" height="16" rx="8" fill="#e0f2fe"/>
    <rect x="60" y="190" width="120" height="12" rx="6" fill="#cffafe"/>
    <rect x="70" y="230" width="100" height="28" rx="8" fill="#1d4ed8"/>
  </g>

  <g transform="translate(460,170)">
    <rect width="240" height="280" rx="16" fill="#22d3ee"/>
    <rect x="40" y="80" width="160" height="48" rx="12" fill="#0b3954"/>
    <rect x="40" y="150" width="160" height="16" rx="8" fill="#0b3954" opacity="0.9"/>
    <rect x="60" y="180" width="120" height="12" rx="6" fill="#0b3954" opacity="0.8"/>
    <rect x="70" y="230" width="100" height="28" rx="8" fill="#1d4ed8"/>
  </g>

  <g transform="translate(760,170)">
    <rect width="240" height="280" rx="16" fill="#60a5fa"/>
    <rect x="40" y="80" width="160" height="48" rx="12" fill="#0b3954"/>
    <rect x="40" y="150" width="160" height="16" rx="8" fill="#0b3954" opacity="0.9"/>
    <rect x="60" y="180" width="120" height="12" rx="6" fill="#0b3954" opacity="0.8"/>
    <rect x="70" y="230" width="100" height="28" rx="8" fill="#1d4ed8"/>
  </g>

  <g stroke="url(#g)" stroke-width="6" fill="none" opacity="0.8">
    <path d="M400 240 C 460 200, 500 200, 560 240"/>
    <path d="M700 240 C 760 200, 800 200, 860 240"/>
  </g>

  <g font-family="system-ui, -apple-system, Segoe UI, Roboto, Helvetica, Arial, sans-serif" font-weight="700" fill="#e0f2fe">
    <text x="120" y="560" font-size="44">Passerelles de paiement — Wave • Orange • Free</text>
    <text x="120" y="600" font-size="26" opacity="0.9">IoT, distributeurs et intégrations sécurisées</text>
  </g>
</svg>

